# xmcd CD database file
#
# Track frame offsets:
#	150
#	15515
#	31802
#	46342
#	69402
#	84822
#	111645
#	139310
#	160275
#	188120
#	210485
#
# Disc length: 3065 seconds
#
# Revision: 0
# Processed by: cddbd v1.5.2PL0 Copyright (c) Steve Scherf et al.
# Submitted via: CDex 2.09
#
DISCID=8d0bf70b
DTITLE=Red Beans and Rice - Nothin' But The Blues
DYEAR=1995
DGENRE=Blues
TTITLE0=Have A Good Time
TTITLE1=Business Man
TTITLE2=How Can You Be So Mean
TTITLE3=Trouble In Mind
TTITLE4=Give Me A Bullet
TTITLE5=Just Don't Know
TTITLE6=Nothin' But The Blues
TTITLE7=Kidney Stew
TTITLE8=The Dark Side
TTITLE9=Ain't Superstitious
TTITLE10=Big Legged Woman
EXTD=YEAR: 1995
EXTT0=
EXTT1=
EXTT2=
EXTT3=
EXTT4=
EXTT5=
EXTT6=
EXTT7=
EXTT8=
EXTT9=
EXTT10=
PLAYORDER=
